<svg xmlns="http://www.w3.org/2000/svg" version="1.1" xmlns:xlink="http://www.w3.org/1999/xlink" xmlns:svgjs="http://svgjs.dev/svgjs" viewBox="0 0 1422 800" opacity="0.52"><g fill="none" stroke-width="2.5" stroke="hsl(28, 100%, 50%)" stroke-linecap="square" transform="matrix(1.2,0,0,1.2,-142.19999999999993,-80.0000122070312)"><line x1="1047.5" y1="400" x2="374.5" y2="400" transform="rotate(0, 711, 400)" opacity="0.23"></line><line x1="-211" y1="400" x2="1633" y2="400" transform="rotate(2, 711, 400)" opacity="0.62"></line><line x1="-45" y1="400" x2="1467" y2="400" transform="rotate(4, 711, 400)" opacity="0.50"></line><line x1="-54" y1="400" x2="1476" y2="400" transform="rotate(6, 711, 400)" opacity="0.70"></line><line x1="623" y1="400" x2="799" y2="400" transform="rotate(8, 711, 400)" opacity="0.30"></line><line x1="-25" y1="400" x2="1447" y2="400" transform="rotate(10, 711, 400)" opacity="0.92"></line><line x1="652.5" y1="400" x2="769.5" y2="400" transform="rotate(12, 711, 400)" opacity="0.14"></line><line x1="371" y1="400" x2="1051" y2="400" transform="rotate(14, 711, 400)" opacity="0.14"></line><line x1="112.5" y1="400" x2="1309.5" y2="400" transform="rotate(16, 711, 400)" opacity="0.35"></line><line x1="894.5" y1="400" x2="527.5" y2="400" transform="rotate(18, 711, 400)" opacity="0.76"></line><line x1="590" y1="400" x2="832" y2="400" transform="rotate(20, 711, 400)" opacity="0.65"></line><line x1="823.5" y1="400" x2="598.5" y2="400" transform="rotate(22, 711, 400)" opacity="0.70"></line><line x1="-121.5" y1="400" x2="1543.5" y2="400" transform="rotate(24, 711, 400)" opacity="0.51"></line><line x1="228.5" y1="400" x2="1193.5" y2="400" transform="rotate(26, 711, 400)" opacity="0.48"></line><line x1="764" y1="400" x2="658" y2="400" transform="rotate(28, 711, 400)" opacity="0.62"></line><line x1="788.5" y1="400" x2="633.5" y2="400" transform="rotate(30, 711, 400)" opacity="0.31"></line><line x1="406" y1="400" x2="1016" y2="400" transform="rotate(32, 711, 400)" opacity="0.88"></line><line x1="529" y1="400" x2="893" y2="400" transform="rotate(34, 711, 400)" opacity="0.67"></line><line x1="-60" y1="400" x2="1482" y2="400" transform="rotate(36, 711, 400)" opacity="0.76"></line><line x1="-28.5" y1="400" x2="1450.5" y2="400" transform="rotate(38, 711, 400)" opacity="0.91"></line><line x1="-183.5" y1="400" x2="1605.5" y2="400" transform="rotate(40, 711, 400)" opacity="0.34"></line><line x1="-39" y1="400" x2="1461" y2="400" transform="rotate(42, 711, 400)" opacity="0.77"></line><line x1="646" y1="400" x2="776" y2="400" transform="rotate(44, 711, 400)" opacity="0.33"></line><line x1="-121" y1="400" x2="1543" y2="400" transform="rotate(46, 711, 400)" opacity="0.95"></line><line x1="917.5" y1="400" x2="504.5" y2="400" transform="rotate(48, 711, 400)" opacity="0.87"></line><line x1="-82" y1="400" x2="1504" y2="400" transform="rotate(50, 711, 400)" opacity="0.86"></line><line x1="-121" y1="400" x2="1543" y2="400" transform="rotate(52, 711, 400)" opacity="0.43"></line><line x1="729.5" y1="400" x2="692.5" y2="400" transform="rotate(54, 711, 400)" opacity="0.90"></line><line x1="-243" y1="400" x2="1665" y2="400" transform="rotate(56, 711, 400)" opacity="0.66"></line><line x1="953.5" y1="400" x2="468.5" y2="400" transform="rotate(58, 711, 400)" opacity="0.54"></line><line x1="-215.5" y1="400" x2="1637.5" y2="400" transform="rotate(60, 711, 400)" opacity="0.64"></line><line x1="67" y1="400" x2="1355" y2="400" transform="rotate(62, 711, 400)" opacity="0.26"></line><line x1="706.5" y1="400" x2="715.5" y2="400" transform="rotate(64, 711, 400)" opacity="0.39"></line><line x1="1165" y1="400" x2="257" y2="400" transform="rotate(66, 711, 400)" opacity="0.23"></line><line x1="261" y1="400" x2="1161" y2="400" transform="rotate(68, 711, 400)" opacity="0.65"></line><line x1="473.5" y1="400" x2="948.5" y2="400" transform="rotate(70, 711, 400)" opacity="0.18"></line><line x1="644.5" y1="400" x2="777.5" y2="400" transform="rotate(72, 711, 400)" opacity="0.15"></line><line x1="151.5" y1="400" x2="1270.5" y2="400" transform="rotate(74, 711, 400)" opacity="0.55"></line><line x1="761" y1="400" x2="661" y2="400" transform="rotate(76, 711, 400)" opacity="0.35"></line><line x1="-100.5" y1="400" x2="1522.5" y2="400" transform="rotate(78, 711, 400)" opacity="0.12"></line><line x1="922.5" y1="400" x2="499.5" y2="400" transform="rotate(80, 711, 400)" opacity="0.12"></line><line x1="360.5" y1="400" x2="1061.5" y2="400" transform="rotate(82, 711, 400)" opacity="0.44"></line><line x1="672.5" y1="400" x2="749.5" y2="400" transform="rotate(84, 711, 400)" opacity="1.00"></line><line x1="128.5" y1="400" x2="1293.5" y2="400" transform="rotate(86, 711, 400)" opacity="0.59"></line><line x1="1008" y1="400" x2="414" y2="400" transform="rotate(88, 711, 400)" opacity="0.17"></line><line x1="286" y1="400" x2="1136" y2="400" transform="rotate(90, 711, 400)" opacity="0.31"></line><line x1="-41.5" y1="400" x2="1463.5" y2="400" transform="rotate(92, 711, 400)" opacity="0.90"></line><line x1="86.5" y1="400" x2="1335.5" y2="400" transform="rotate(94, 711, 400)" opacity="0.59"></line><line x1="-95.5" y1="400" x2="1517.5" y2="400" transform="rotate(96, 711, 400)" opacity="0.36"></line><line x1="755" y1="400" x2="667" y2="400" transform="rotate(98, 711, 400)" opacity="0.87"></line><line x1="1179" y1="400" x2="243" y2="400" transform="rotate(100, 711, 400)" opacity="0.85"></line><line x1="-185.5" y1="400" x2="1607.5" y2="400" transform="rotate(102, 711, 400)" opacity="0.13"></line><line x1="-168" y1="400" x2="1590" y2="400" transform="rotate(104, 711, 400)" opacity="0.53"></line><line x1="1096" y1="400" x2="326" y2="400" transform="rotate(106, 711, 400)" opacity="0.68"></line><line x1="-177" y1="400" x2="1599" y2="400" transform="rotate(108, 711, 400)" opacity="0.56"></line><line x1="1001.5" y1="400" x2="420.5" y2="400" transform="rotate(110, 711, 400)" opacity="0.37"></line><line x1="581.5" y1="400" x2="840.5" y2="400" transform="rotate(112, 711, 400)" opacity="0.48"></line><line x1="792" y1="400" x2="630" y2="400" transform="rotate(114, 711, 400)" opacity="0.72"></line><line x1="97" y1="400" x2="1325" y2="400" transform="rotate(116, 711, 400)" opacity="0.46"></line><line x1="61" y1="400" x2="1361" y2="400" transform="rotate(118, 711, 400)" opacity="0.75"></line><line x1="707.5" y1="400" x2="714.5" y2="400" transform="rotate(120, 711, 400)" opacity="0.89"></line><line x1="-199.5" y1="400" x2="1621.5" y2="400" transform="rotate(122, 711, 400)" opacity="0.57"></line><line x1="357" y1="400" x2="1065" y2="400" transform="rotate(124, 711, 400)" opacity="0.55"></line><line x1="30" y1="400" x2="1392" y2="400" transform="rotate(126, 711, 400)" opacity="0.72"></line><line x1="658.5" y1="400" x2="763.5" y2="400" transform="rotate(128, 711, 400)" opacity="0.51"></line><line x1="230.5" y1="400" x2="1191.5" y2="400" transform="rotate(130, 711, 400)" opacity="0.16"></line><line x1="1107" y1="400" x2="315" y2="400" transform="rotate(132, 711, 400)" opacity="0.41"></line><line x1="1128" y1="400" x2="294" y2="400" transform="rotate(134, 711, 400)" opacity="0.96"></line><line x1="102" y1="400" x2="1320" y2="400" transform="rotate(136, 711, 400)" opacity="0.09"></line><line x1="175" y1="400" x2="1247" y2="400" transform="rotate(138, 711, 400)" opacity="0.63"></line><line x1="-83" y1="400" x2="1505" y2="400" transform="rotate(140, 711, 400)" opacity="0.35"></line><line x1="-195.5" y1="400" x2="1617.5" y2="400" transform="rotate(142, 711, 400)" opacity="0.48"></line><line x1="146" y1="400" x2="1276" y2="400" transform="rotate(144, 711, 400)" opacity="0.90"></line><line x1="984" y1="400" x2="438" y2="400" transform="rotate(146, 711, 400)" opacity="0.58"></line><line x1="534.5" y1="400" x2="887.5" y2="400" transform="rotate(148, 711, 400)" opacity="0.10"></line><line x1="1076.5" y1="400" x2="345.5" y2="400" transform="rotate(150, 711, 400)" opacity="0.51"></line><line x1="563" y1="400" x2="859" y2="400" transform="rotate(152, 711, 400)" opacity="0.69"></line><line x1="922" y1="400" x2="500" y2="400" transform="rotate(154, 711, 400)" opacity="0.19"></line><line x1="1147.5" y1="400" x2="274.5" y2="400" transform="rotate(156, 711, 400)" opacity="0.08"></line><line x1="257.5" y1="400" x2="1164.5" y2="400" transform="rotate(158, 711, 400)" opacity="0.31"></line><line x1="9.5" y1="400" x2="1412.5" y2="400" transform="rotate(160, 711, 400)" opacity="0.50"></line><line x1="815" y1="400" x2="607" y2="400" transform="rotate(162, 711, 400)" opacity="0.20"></line><line x1="583.5" y1="400" x2="838.5" y2="400" transform="rotate(164, 711, 400)" opacity="0.77"></line><line x1="78" y1="400" x2="1344" y2="400" transform="rotate(166, 711, 400)" opacity="0.69"></line><line x1="-241" y1="400" x2="1663" y2="400" transform="rotate(168, 711, 400)" opacity="0.74"></line><line x1="141.5" y1="400" x2="1280.5" y2="400" transform="rotate(170, 711, 400)" opacity="0.78"></line><line x1="1167.5" y1="400" x2="254.5" y2="400" transform="rotate(172, 711, 400)" opacity="0.84"></line><line x1="-143.5" y1="400" x2="1565.5" y2="400" transform="rotate(174, 711, 400)" opacity="0.08"></line><line x1="199" y1="400" x2="1223" y2="400" transform="rotate(176, 711, 400)" opacity="0.46"></line><line x1="365" y1="400" x2="1057" y2="400" transform="rotate(178, 711, 400)" opacity="0.96"></line><line x1="8.5" y1="400" x2="1413.5" y2="400" transform="rotate(180, 711, 400)" opacity="0.75"></line><line x1="163.5" y1="400" x2="1258.5" y2="400" transform="rotate(182, 711, 400)" opacity="0.40"></line><line x1="899.5" y1="400" x2="522.5" y2="400" transform="rotate(184, 711, 400)" opacity="0.85"></line><line x1="870" y1="400" x2="552" y2="400" transform="rotate(186, 711, 400)" opacity="0.75"></line><line x1="837" y1="400" x2="585" y2="400" transform="rotate(188, 711, 400)" opacity="0.34"></line><line x1="-219" y1="400" x2="1641" y2="400" transform="rotate(190, 711, 400)" opacity="0.65"></line><line x1="887.5" y1="400" x2="534.5" y2="400" transform="rotate(192, 711, 400)" opacity="0.26"></line><line x1="-14.5" y1="400" x2="1436.5" y2="400" transform="rotate(194, 711, 400)" opacity="0.36"></line><line x1="874.5" y1="400" x2="547.5" y2="400" transform="rotate(196, 711, 400)" opacity="0.92"></line><line x1="169.5" y1="400" x2="1252.5" y2="400" transform="rotate(198, 711, 400)" opacity="0.88"></line><line x1="808.5" y1="400" x2="613.5" y2="400" transform="rotate(200, 711, 400)" opacity="0.34"></line><line x1="263.5" y1="400" x2="1158.5" y2="400" transform="rotate(202, 711, 400)" opacity="0.87"></line><line x1="147.5" y1="400" x2="1274.5" y2="400" transform="rotate(204, 711, 400)" opacity="0.72"></line><line x1="414" y1="400" x2="1008" y2="400" transform="rotate(206, 711, 400)" opacity="0.60"></line><line x1="92.5" y1="400" x2="1329.5" y2="400" transform="rotate(208, 711, 400)" opacity="0.14"></line><line x1="469.5" y1="400" x2="952.5" y2="400" transform="rotate(210, 711, 400)" opacity="0.58"></line><line x1="100" y1="400" x2="1322" y2="400" transform="rotate(212, 711, 400)" opacity="0.22"></line><line x1="1012.5" y1="400" x2="409.5" y2="400" transform="rotate(214, 711, 400)" opacity="0.22"></line><line x1="1206" y1="400" x2="216" y2="400" transform="rotate(216, 711, 400)" opacity="0.47"></line><line x1="262.5" y1="400" x2="1159.5" y2="400" transform="rotate(218, 711, 400)" opacity="0.67"></line><line x1="-152" y1="400" x2="1574" y2="400" transform="rotate(220, 711, 400)" opacity="0.17"></line><line x1="-29" y1="400" x2="1451" y2="400" transform="rotate(222, 711, 400)" opacity="0.10"></line><line x1="788" y1="400" x2="634" y2="400" transform="rotate(224, 711, 400)" opacity="0.84"></line><line x1="354.5" y1="400" x2="1067.5" y2="400" transform="rotate(226, 711, 400)" opacity="0.30"></line><line x1="736.5" y1="400" x2="685.5" y2="400" transform="rotate(228, 711, 400)" opacity="0.91"></line><line x1="1003.5" y1="400" x2="418.5" y2="400" transform="rotate(230, 711, 400)" opacity="0.99"></line><line x1="143.5" y1="400" x2="1278.5" y2="400" transform="rotate(232, 711, 400)" opacity="0.34"></line><line x1="835" y1="400" x2="587" y2="400" transform="rotate(234, 711, 400)" opacity="0.18"></line><line x1="1195" y1="400" x2="227" y2="400" transform="rotate(236, 711, 400)" opacity="0.15"></line><line x1="510.5" y1="400" x2="911.5" y2="400" transform="rotate(238, 711, 400)" opacity="0.81"></line><line x1="1176.5" y1="400" x2="245.5" y2="400" transform="rotate(240, 711, 400)" opacity="0.17"></line><line x1="106" y1="400" x2="1316" y2="400" transform="rotate(242, 711, 400)" opacity="0.13"></line><line x1="650" y1="400" x2="772" y2="400" transform="rotate(244, 711, 400)" opacity="0.29"></line><line x1="909" y1="400" x2="513" y2="400" transform="rotate(246, 711, 400)" opacity="0.49"></line><line x1="801" y1="400" x2="621" y2="400" transform="rotate(248, 711, 400)" opacity="0.87"></line><line x1="62" y1="400" x2="1360" y2="400" transform="rotate(250, 711, 400)" opacity="0.65"></line><line x1="133.5" y1="400" x2="1288.5" y2="400" transform="rotate(252, 711, 400)" opacity="0.44"></line><line x1="256.5" y1="400" x2="1165.5" y2="400" transform="rotate(254, 711, 400)" opacity="0.59"></line><line x1="275.5" y1="400" x2="1146.5" y2="400" transform="rotate(256, 711, 400)" opacity="0.63"></line><line x1="1072.5" y1="400" x2="349.5" y2="400" transform="rotate(258, 711, 400)" opacity="0.12"></line><line x1="-146" y1="400" x2="1568" y2="400" transform="rotate(260, 711, 400)" opacity="0.82"></line><line x1="464.5" y1="400" x2="957.5" y2="400" transform="rotate(262, 711, 400)" opacity="0.26"></line><line x1="1072" y1="400" x2="350" y2="400" transform="rotate(264, 711, 400)" opacity="0.35"></line><line x1="1152.5" y1="400" x2="269.5" y2="400" transform="rotate(266, 711, 400)" opacity="0.86"></line><line x1="1022" y1="400" x2="400" y2="400" transform="rotate(268, 711, 400)" opacity="0.79"></line><line x1="145.5" y1="400" x2="1276.5" y2="400" transform="rotate(270, 711, 400)" opacity="0.23"></line><line x1="710.5" y1="400" x2="711.5" y2="400" transform="rotate(272, 711, 400)" opacity="0.31"></line><line x1="729.5" y1="400" x2="692.5" y2="400" transform="rotate(274, 711, 400)" opacity="0.74"></line><line x1="-81.5" y1="400" x2="1503.5" y2="400" transform="rotate(276, 711, 400)" opacity="0.79"></line><line x1="724" y1="400" x2="698" y2="400" transform="rotate(278, 711, 400)" opacity="0.93"></line><line x1="929" y1="400" x2="493" y2="400" transform="rotate(280, 711, 400)" opacity="0.26"></line><line x1="1063.5" y1="400" x2="358.5" y2="400" transform="rotate(282, 711, 400)" opacity="0.19"></line><line x1="-232.5" y1="400" x2="1654.5" y2="400" transform="rotate(284, 711, 400)" opacity="0.54"></line><line x1="267" y1="400" x2="1155" y2="400" transform="rotate(286, 711, 400)" opacity="0.91"></line><line x1="650" y1="400" x2="772" y2="400" transform="rotate(288, 711, 400)" opacity="0.09"></line><line x1="1121" y1="400" x2="301" y2="400" transform="rotate(290, 711, 400)" opacity="0.97"></line><line x1="618" y1="400" x2="804" y2="400" transform="rotate(292, 711, 400)" opacity="0.36"></line><line x1="192.5" y1="400" x2="1229.5" y2="400" transform="rotate(294, 711, 400)" opacity="0.21"></line><line x1="96.5" y1="400" x2="1325.5" y2="400" transform="rotate(296, 711, 400)" opacity="0.95"></line><line x1="413.5" y1="400" x2="1008.5" y2="400" transform="rotate(298, 711, 400)" opacity="0.40"></line><line x1="-213" y1="400" x2="1635" y2="400" transform="rotate(300, 711, 400)" opacity="0.30"></line><line x1="54" y1="400" x2="1368" y2="400" transform="rotate(302, 711, 400)" opacity="0.10"></line><line x1="-100" y1="400" x2="1522" y2="400" transform="rotate(304, 711, 400)" opacity="0.10"></line><line x1="682" y1="400" x2="740" y2="400" transform="rotate(306, 711, 400)" opacity="0.56"></line><line x1="138" y1="400" x2="1284" y2="400" transform="rotate(308, 711, 400)" opacity="0.79"></line><line x1="269.5" y1="400" x2="1152.5" y2="400" transform="rotate(310, 711, 400)" opacity="0.63"></line></g></svg>