<svg xmlns="http://www.w3.org/2000/svg" version="1.1" xmlns:xlink="http://www.w3.org/1999/xlink" xmlns:svgjs="http://svgjs.dev/svgjs" viewBox="0 0 800 800" opacity="0.31"><defs><linearGradient x1="50%" y1="0%" x2="50%" y2="100%" id="rrreflection-grad"><stop stop-color="hsla(223, 86%, 57%, 0.96)" stop-opacity="1" offset="45%"></stop><stop stop-color="hsla(257, 73%, 55%, 0.47)" stop-opacity="1" offset="100%"></stop></linearGradient><linearGradient x1="50%" y1="0%" x2="50%" y2="100%" id="rrreflection-grad-2"><stop stop-color="hsla(257, 73%, 55%, 0.47)" stop-opacity="1" offset="0%"></stop><stop stop-color="hsla(223, 86%, 57%, 0.96)" stop-opacity="1" offset="45%"></stop></linearGradient><linearGradient gradientTransform="rotate(270)" x1="50%" y1="0%" x2="50%" y2="100%" id="rrreflection-grad-3"><stop stop-color="hsla(223, 86%, 57%, 0.96)" stop-opacity="1" offset="45%"></stop><stop stop-color="hsla(257, 73%, 55%, 0.47)" stop-opacity="1" offset="100%"></stop></linearGradient><linearGradient gradientTransform="rotate(270)" x1="50%" y1="0%" x2="50%" y2="100%" id="rrreflection-grad-4"><stop stop-color="hsla(257, 73%, 55%, 0.47)" stop-opacity="1" offset="0%"></stop><stop stop-color="hsla(223, 86%, 57%, 0.96)" stop-opacity="1" offset="45%"></stop></linearGradient></defs><g stroke-width="1" stroke="url(#rrreflection-grad)" fill="none"><circle r="1425" cx="50%" cy="0"></circle><circle r="1368" cx="50%" cy="0"></circle><circle r="1311" cx="50%" cy="0"></circle><circle r="1254" cx="50%" cy="0"></circle><circle r="1197" cx="50%" cy="0"></circle><circle r="1140" cx="50%" cy="0"></circle><circle r="1083" cx="50%" cy="0"></circle><circle r="1026" cx="50%" cy="0"></circle><circle r="969" cx="50%" cy="0"></circle><circle r="912" cx="50%" cy="0"></circle><circle r="855" cx="50%" cy="0"></circle><circle r="798" cx="50%" cy="0"></circle><circle r="741" cx="50%" cy="0"></circle><circle r="684" cx="50%" cy="0"></circle><circle r="627" cx="50%" cy="0"></circle><circle r="570" cx="50%" cy="0"></circle><circle r="513" cx="50%" cy="0"></circle><circle r="456" cx="50%" cy="0"></circle><circle r="399" cx="50%" cy="0"></circle><circle r="342" cx="50%" cy="0"></circle><circle r="285" cx="50%" cy="0"></circle><circle r="228" cx="50%" cy="0"></circle><circle r="171" cx="50%" cy="0"></circle><circle r="114" cx="50%" cy="0"></circle><circle r="57" cx="50%" cy="0"></circle></g><g stroke-width="1" stroke="url(#rrreflection-grad-2)" fill="none"><circle r="1425" cx="50%" cy="100%"></circle><circle r="1368" cx="50%" cy="100%"></circle><circle r="1311" cx="50%" cy="100%"></circle><circle r="1254" cx="50%" cy="100%"></circle><circle r="1197" cx="50%" cy="100%"></circle><circle r="1140" cx="50%" cy="100%"></circle><circle r="1083" cx="50%" cy="100%"></circle><circle r="1026" cx="50%" cy="100%"></circle><circle r="969" cx="50%" cy="100%"></circle><circle r="912" cx="50%" cy="100%"></circle><circle r="855" cx="50%" cy="100%"></circle><circle r="798" cx="50%" cy="100%"></circle><circle r="741" cx="50%" cy="100%"></circle><circle r="684" cx="50%" cy="100%"></circle><circle r="627" cx="50%" cy="100%"></circle><circle r="570" cx="50%" cy="100%"></circle><circle r="513" cx="50%" cy="100%"></circle><circle r="456" cx="50%" cy="100%"></circle><circle r="399" cx="50%" cy="100%"></circle><circle r="342" cx="50%" cy="100%"></circle><circle r="285" cx="50%" cy="100%"></circle><circle r="228" cx="50%" cy="100%"></circle><circle r="171" cx="50%" cy="100%"></circle><circle r="114" cx="50%" cy="100%"></circle><circle r="57" cx="50%" cy="100%"></circle></g><g stroke-width="1" stroke="url(#rrreflection-grad-3)" fill="none"><circle r="1425" cx="0" cy="50%"></circle><circle r="1368" cx="0" cy="50%"></circle><circle r="1311" cx="0" cy="50%"></circle><circle r="1254" cx="0" cy="50%"></circle><circle r="1197" cx="0" cy="50%"></circle><circle r="1140" cx="0" cy="50%"></circle><circle r="1083" cx="0" cy="50%"></circle><circle r="1026" cx="0" cy="50%"></circle><circle r="969" cx="0" cy="50%"></circle><circle r="912" cx="0" cy="50%"></circle><circle r="855" cx="0" cy="50%"></circle><circle r="798" cx="0" cy="50%"></circle><circle r="741" cx="0" cy="50%"></circle><circle r="684" cx="0" cy="50%"></circle><circle r="627" cx="0" cy="50%"></circle><circle r="570" cx="0" cy="50%"></circle><circle r="513" cx="0" cy="50%"></circle><circle r="456" cx="0" cy="50%"></circle><circle r="399" cx="0" cy="50%"></circle><circle r="342" cx="0" cy="50%"></circle><circle r="285" cx="0" cy="50%"></circle><circle r="228" cx="0" cy="50%"></circle><circle r="171" cx="0" cy="50%"></circle><circle r="114" cx="0" cy="50%"></circle><circle r="57" cx="0" cy="50%"></circle></g><g stroke-width="1" stroke="url(#rrreflection-grad-4)" fill="none"><circle r="1425" cx="100%" cy="50%"></circle><circle r="1368" cx="100%" cy="50%"></circle><circle r="1311" cx="100%" cy="50%"></circle><circle r="1254" cx="100%" cy="50%"></circle><circle r="1197" cx="100%" cy="50%"></circle><circle r="1140" cx="100%" cy="50%"></circle><circle r="1083" cx="100%" cy="50%"></circle><circle r="1026" cx="100%" cy="50%"></circle><circle r="969" cx="100%" cy="50%"></circle><circle r="912" cx="100%" cy="50%"></circle><circle r="855" cx="100%" cy="50%"></circle><circle r="798" cx="100%" cy="50%"></circle><circle r="741" cx="100%" cy="50%"></circle><circle r="684" cx="100%" cy="50%"></circle><circle r="627" cx="100%" cy="50%"></circle><circle r="570" cx="100%" cy="50%"></circle><circle r="513" cx="100%" cy="50%"></circle><circle r="456" cx="100%" cy="50%"></circle><circle r="399" cx="100%" cy="50%"></circle><circle r="342" cx="100%" cy="50%"></circle><circle r="285" cx="100%" cy="50%"></circle><circle r="228" cx="100%" cy="50%"></circle><circle r="171" cx="100%" cy="50%"></circle><circle r="114" cx="100%" cy="50%"></circle><circle r="57" cx="100%" cy="50%"></circle></g></svg>