<svg xmlns="http://www.w3.org/2000/svg" version="1.1" xmlns:xlink="http://www.w3.org/1999/xlink" xmlns:svgjs="http://svgjs.dev/svgjs" viewBox="0 0 800 800" opacity="0.64"><defs><linearGradient x1="50%" y1="0%" x2="50%" y2="100%" id="rrreflection-grad"><stop stop-color="hsla(223, 86%, 57%, 0.96)" stop-opacity="1" offset="45%"></stop><stop stop-color="hsla(257, 73%, 55%, 0.47)" stop-opacity="1" offset="100%"></stop></linearGradient><linearGradient x1="50%" y1="0%" x2="50%" y2="100%" id="rrreflection-grad-2"><stop stop-color="hsla(257, 73%, 55%, 0.47)" stop-opacity="1" offset="0%"></stop><stop stop-color="hsla(223, 86%, 57%, 0.96)" stop-opacity="1" offset="45%"></stop></linearGradient><linearGradient gradientTransform="rotate(270)" x1="50%" y1="0%" x2="50%" y2="100%" id="rrreflection-grad-3"><stop stop-color="hsla(223, 86%, 57%, 0.96)" stop-opacity="1" offset="45%"></stop><stop stop-color="hsla(257, 73%, 55%, 0.47)" stop-opacity="1" offset="100%"></stop></linearGradient><linearGradient gradientTransform="rotate(270)" x1="50%" y1="0%" x2="50%" y2="100%" id="rrreflection-grad-4"><stop stop-color="hsla(257, 73%, 55%, 0.47)" stop-opacity="1" offset="0%"></stop><stop stop-color="hsla(223, 86%, 57%, 0.96)" stop-opacity="1" offset="45%"></stop></linearGradient></defs><g stroke-width="1" stroke="url(#rrreflection-grad)" fill="none"><circle r="2000" cx="50%" cy="0"></circle><circle r="1920" cx="50%" cy="0"></circle><circle r="1840" cx="50%" cy="0"></circle><circle r="1760" cx="50%" cy="0"></circle><circle r="1680" cx="50%" cy="0"></circle><circle r="1600" cx="50%" cy="0"></circle><circle r="1520" cx="50%" cy="0"></circle><circle r="1440" cx="50%" cy="0"></circle><circle r="1360" cx="50%" cy="0"></circle><circle r="1280" cx="50%" cy="0"></circle><circle r="1200" cx="50%" cy="0"></circle><circle r="1120" cx="50%" cy="0"></circle><circle r="1040" cx="50%" cy="0"></circle><circle r="960" cx="50%" cy="0"></circle><circle r="880" cx="50%" cy="0"></circle><circle r="800" cx="50%" cy="0"></circle><circle r="720" cx="50%" cy="0"></circle><circle r="640" cx="50%" cy="0"></circle><circle r="560" cx="50%" cy="0"></circle><circle r="480" cx="50%" cy="0"></circle><circle r="400" cx="50%" cy="0"></circle><circle r="320" cx="50%" cy="0"></circle><circle r="240" cx="50%" cy="0"></circle><circle r="160" cx="50%" cy="0"></circle><circle r="80" cx="50%" cy="0"></circle></g><g stroke-width="1" stroke="url(#rrreflection-grad-2)" fill="none"><circle r="2000" cx="50%" cy="100%"></circle><circle r="1920" cx="50%" cy="100%"></circle><circle r="1840" cx="50%" cy="100%"></circle><circle r="1760" cx="50%" cy="100%"></circle><circle r="1680" cx="50%" cy="100%"></circle><circle r="1600" cx="50%" cy="100%"></circle><circle r="1520" cx="50%" cy="100%"></circle><circle r="1440" cx="50%" cy="100%"></circle><circle r="1360" cx="50%" cy="100%"></circle><circle r="1280" cx="50%" cy="100%"></circle><circle r="1200" cx="50%" cy="100%"></circle><circle r="1120" cx="50%" cy="100%"></circle><circle r="1040" cx="50%" cy="100%"></circle><circle r="960" cx="50%" cy="100%"></circle><circle r="880" cx="50%" cy="100%"></circle><circle r="800" cx="50%" cy="100%"></circle><circle r="720" cx="50%" cy="100%"></circle><circle r="640" cx="50%" cy="100%"></circle><circle r="560" cx="50%" cy="100%"></circle><circle r="480" cx="50%" cy="100%"></circle><circle r="400" cx="50%" cy="100%"></circle><circle r="320" cx="50%" cy="100%"></circle><circle r="240" cx="50%" cy="100%"></circle><circle r="160" cx="50%" cy="100%"></circle><circle r="80" cx="50%" cy="100%"></circle></g><g stroke-width="1" stroke="url(#rrreflection-grad-3)" fill="none"><circle r="2000" cx="0" cy="50%"></circle><circle r="1920" cx="0" cy="50%"></circle><circle r="1840" cx="0" cy="50%"></circle><circle r="1760" cx="0" cy="50%"></circle><circle r="1680" cx="0" cy="50%"></circle><circle r="1600" cx="0" cy="50%"></circle><circle r="1520" cx="0" cy="50%"></circle><circle r="1440" cx="0" cy="50%"></circle><circle r="1360" cx="0" cy="50%"></circle><circle r="1280" cx="0" cy="50%"></circle><circle r="1200" cx="0" cy="50%"></circle><circle r="1120" cx="0" cy="50%"></circle><circle r="1040" cx="0" cy="50%"></circle><circle r="960" cx="0" cy="50%"></circle><circle r="880" cx="0" cy="50%"></circle><circle r="800" cx="0" cy="50%"></circle><circle r="720" cx="0" cy="50%"></circle><circle r="640" cx="0" cy="50%"></circle><circle r="560" cx="0" cy="50%"></circle><circle r="480" cx="0" cy="50%"></circle><circle r="400" cx="0" cy="50%"></circle><circle r="320" cx="0" cy="50%"></circle><circle r="240" cx="0" cy="50%"></circle><circle r="160" cx="0" cy="50%"></circle><circle r="80" cx="0" cy="50%"></circle></g><g stroke-width="1" stroke="url(#rrreflection-grad-4)" fill="none"><circle r="2000" cx="100%" cy="50%"></circle><circle r="1920" cx="100%" cy="50%"></circle><circle r="1840" cx="100%" cy="50%"></circle><circle r="1760" cx="100%" cy="50%"></circle><circle r="1680" cx="100%" cy="50%"></circle><circle r="1600" cx="100%" cy="50%"></circle><circle r="1520" cx="100%" cy="50%"></circle><circle r="1440" cx="100%" cy="50%"></circle><circle r="1360" cx="100%" cy="50%"></circle><circle r="1280" cx="100%" cy="50%"></circle><circle r="1200" cx="100%" cy="50%"></circle><circle r="1120" cx="100%" cy="50%"></circle><circle r="1040" cx="100%" cy="50%"></circle><circle r="960" cx="100%" cy="50%"></circle><circle r="880" cx="100%" cy="50%"></circle><circle r="800" cx="100%" cy="50%"></circle><circle r="720" cx="100%" cy="50%"></circle><circle r="640" cx="100%" cy="50%"></circle><circle r="560" cx="100%" cy="50%"></circle><circle r="480" cx="100%" cy="50%"></circle><circle r="400" cx="100%" cy="50%"></circle><circle r="320" cx="100%" cy="50%"></circle><circle r="240" cx="100%" cy="50%"></circle><circle r="160" cx="100%" cy="50%"></circle><circle r="80" cx="100%" cy="50%"></circle></g></svg>